<svg width="29" height="30" viewBox="0 0 29 30" fill="none" xmlns="http://www.w3.org/2000/svg">
<path d="M25.25 5.625H2.75C2.25272 5.625 1.77581 5.82254 1.42417 6.17417C1.07254 6.52581 0.875 7.00272 0.875 7.5V22.5C0.875 22.9973 1.07254 23.4742 1.42417 23.8258C1.77581 24.1775 2.25272 24.375 2.75 24.375H25.25C25.7473 24.375 26.2242 24.1775 26.5758 23.8258C26.9275 23.4742 27.125 22.9973 27.125 22.5V7.5C27.125 7.00272 26.9275 6.52581 26.5758 6.17417C26.2242 5.82254 25.7473 5.625 25.25 5.625V5.625ZM23.1875 7.5L14 13.8562L4.8125 7.5H23.1875ZM2.75 22.5V8.35312L13.4656 15.7687C13.6226 15.8776 13.809 15.936 14 15.936C14.191 15.936 14.3774 15.8776 14.5344 15.7687L25.25 8.35312V22.5H2.75Z" fill="white"/>
</svg>
