<svg width="160" height="160" viewBox="0 0 160 160" fill="none" xmlns="http://www.w3.org/2000/svg">
<path d="M80.5714 35.8477L120.571 58.3144V102.448L80.5714 124.914L40.5714 102.448V58.3144L80.5714 35.8477ZM140.571 110.381C140.571 112.914 139.171 115.114 137.038 116.248L84.3714 145.848C83.3048 146.648 81.9714 147.048 80.5714 147.048C79.1714 147.048 77.8381 146.648 76.7714 145.848L24.1048 116.248C23.036 115.686 22.1415 114.842 21.5186 113.808C20.8957 112.774 20.5681 111.588 20.5714 110.381V50.381C20.5714 47.8477 21.9714 45.6477 24.1048 44.5144L76.7714 14.9144C77.8381 14.1144 79.1714 13.7144 80.5714 13.7144C81.9714 13.7144 83.3048 14.1144 84.3714 14.9144L137.038 44.5144C139.171 45.6477 140.571 47.8477 140.571 50.381V110.381ZM80.5714 28.0477L33.9048 54.3144V106.448L80.5714 132.714L127.238 106.448V54.3144L80.5714 28.0477Z" fill="white"/>
</svg>
