<svg width="96" height="76" viewBox="0 0 96 76" fill="none" xmlns="http://www.w3.org/2000/svg">
<g clip-path="url(#clip0)">
<path d="M15.7374 61.0806C15.7374 61.0806 14.1054 62.0257 16.896 62.3425C20.2774 62.7296 22.0067 62.6752 25.7294 61.97C25.7294 61.97 26.7067 62.5851 28.076 63.1167C19.7227 66.6732 9.17336 62.9032 15.736 61.0806H15.7374ZM14.7147 56.441C14.7147 56.441 12.8814 57.7865 15.6734 58.0688C19.2934 58.4413 22.1387 58.4771 27.076 57.532C27.076 57.532 27.7574 58.216 28.8347 58.5938C18.7374 61.5273 7.48669 58.8218 14.716 56.441H14.7147ZM23.3187 48.5644C25.3734 50.9187 22.776 53.0383 22.776 53.0383C22.776 53.0383 27.9987 50.3513 25.6027 46.9976C23.3614 43.8626 21.6387 42.3103 30.9427 36.9444C30.9427 36.9444 16.3387 40.5698 23.3174 48.5658L23.3187 48.5644ZM34.3614 64.5191C34.3614 64.5191 35.5707 65.5054 33.0347 66.2729C28.2147 67.7217 12.972 68.1565 8.73603 66.3272C7.21603 65.6711 10.0694 64.7537 10.9654 64.5668C11.9027 64.3601 12.4374 64.4025 12.4374 64.4025C10.7427 63.2148 1.49336 66.7289 7.73736 67.7363C24.772 70.4842 38.784 66.5009 34.3614 64.5191ZM16.5214 51.6292C16.5214 51.6292 8.76536 53.4585 13.7707 54.1213C15.8894 54.4036 20.1054 54.3426 24.036 54.0112C27.2427 53.7408 30.4667 53.1682 30.4667 53.1682C30.4667 53.1682 29.3347 53.6507 28.5147 54.2114C20.6387 56.2687 5.42536 55.309 9.80669 53.204C13.508 51.429 16.5214 51.6292 16.5214 51.6292ZM30.4307 59.3613C38.4307 55.2188 34.7294 51.2487 32.1534 51.7882C31.52 51.9115 31.236 52.0308 31.236 52.0308C31.236 52.0308 31.4654 51.6636 31.9174 51.5059C37.028 49.7177 40.9587 56.7724 30.2707 59.5694C30.2707 59.5628 30.3974 59.4594 30.4307 59.3626V59.3613ZM25.604 28.2791C25.604 28.2791 30.036 32.684 21.396 39.463C14.4734 44.9032 19.8187 48.0037 21.396 51.5457C17.3547 47.9202 14.3894 44.7322 16.376 41.7629C19.2987 37.3924 27.3894 35.2794 25.604 28.2791ZM17.3054 70.5664C24.9867 71.0489 36.784 70.2907 37.0707 66.6798C37.0707 66.6798 36.528 68.0465 30.7147 69.1361C24.16 70.3649 16.0694 70.2191 11.2707 69.4331C11.2707 69.4331 12.2574 70.2403 17.304 70.5664H17.3054Z" fill="white"/>
</g>
<path d="M70.3733 54.2463H78.0675C78.0675 54.2463 82.3911 54.3153 82.3911 50.0928V43.1097C82.3911 43.1097 83.0471 38.8837 74.5528 38.8837C66.4213 38.8837 66.928 42.3886 66.928 42.3886L66.9386 46.0207H74.6951V47.1112H63.8577C63.8577 47.1112 58.6542 46.5244 58.6542 54.6794C58.6542 62.8343 63.1964 62.5445 63.1964 62.5445H65.9057V58.7604C65.9057 58.7604 65.7582 54.2463 70.3733 54.2463ZM70.2737 44.1012C69.9036 44.1012 69.5486 43.955 69.2869 43.6948C69.0252 43.4346 68.8782 43.0817 68.8782 42.7138C68.8782 42.3458 69.0252 41.9929 69.2869 41.7327C69.5486 41.4725 69.9036 41.3263 70.2737 41.3263C70.6439 41.3263 70.9988 41.4725 71.2605 41.7327C71.5223 41.9929 71.6693 42.3458 71.6693 42.7138C71.6693 43.0817 71.5223 43.4346 71.2605 43.6948C70.9988 43.955 70.6439 44.1012 70.2737 44.1012Z" fill="white"/>
<path d="M86.1369 46.8938H83.4276V50.6779C83.4276 50.6779 83.5751 55.192 78.96 55.192H71.2658C71.2658 55.192 66.9422 55.1213 66.9422 59.3455V66.3286C66.9422 66.3286 66.2862 70.5546 74.7804 70.5546C82.9102 70.5546 82.4036 67.0497 82.4036 67.0497L82.3929 63.4194H74.6364V62.3289H85.4756C85.4756 62.3289 90.6791 62.9157 90.6791 54.7607C90.6791 46.6057 86.1369 46.8938 86.1369 46.8938ZM79.0596 65.3389C79.4297 65.3389 79.7846 65.485 80.0464 65.7452C80.3081 66.0054 80.4551 66.3583 80.4551 66.7263C80.4551 67.0943 80.3081 67.4472 80.0464 67.7074C79.7846 67.9676 79.4297 68.1137 79.0596 68.1137C78.6894 68.1137 78.3345 67.9676 78.0728 67.7074C77.811 67.4472 77.664 67.0943 77.664 66.7263C77.664 66.3583 77.811 66.0054 78.0728 65.7452C78.3345 65.485 78.6894 65.3389 79.0596 65.3389Z" fill="white"/>
<path d="M37.472 21.2093C37.4748 18.4342 38.5849 15.7735 40.5587 13.8112C42.5325 11.8489 45.2087 10.7453 48 10.7425C49.847 10.7463 51.6607 11.2311 53.2605 12.1487C54.8603 13.0663 56.1904 14.3846 57.1182 15.9723L54.4533 17.5047L63.3902 12.3756C63.1604 11.9609 62.8282 11.6112 62.4249 11.3593L49.3671 3.86536C48.6133 3.43233 47.3831 3.43233 46.6311 3.86536L33.5733 11.3593C32.8231 11.7906 32.208 12.851 32.208 13.7153V28.7032C32.208 29.1362 32.3609 29.617 32.6098 30.0429L38.8836 26.4409C37.9564 24.8516 37.4694 23.0465 37.472 21.2093Z" fill="white"/>
<path d="M52.5583 18.5917C52.0948 17.7976 51.43 17.1381 50.6302 16.6791C49.8304 16.2202 48.9235 15.9777 48 15.9759C47.0768 15.9777 46.1703 16.2206 45.3712 16.6803C44.5721 17.14 43.9085 17.8004 43.4469 18.5952C42.9853 19.3901 42.7419 20.2916 42.741 21.2095C42.7401 22.1273 42.9818 23.0293 43.4418 23.8251L48 21.2093L52.5583 18.5917Z" fill="white"/>
<path d="M63.3903 12.3756L54.4196 17.5242L52.56 18.5935L52.5583 18.5917L48 21.2093L43.4436 23.8251C43.9057 24.6201 44.5699 25.2805 45.3696 25.7399C46.1693 26.1993 47.0764 26.4417 48 26.4427C48.924 26.4412 49.8315 26.1987 50.6317 25.7393C51.4319 25.28 52.0968 24.6199 52.56 23.8251L57.1165 26.4462C56.1889 28.0342 54.8589 29.3527 53.259 30.2703C51.6592 31.1879 49.8453 31.6726 47.9983 31.6761C46.1504 31.675 44.3352 31.1907 42.7351 30.2718C41.135 29.3529 39.8061 28.0318 38.8818 26.4409L32.608 30.043C32.8569 30.4707 33.1983 30.8436 33.5734 31.0592L46.6311 38.5532C47.3831 38.9862 48.6134 38.9862 49.3671 38.5532L62.4249 31.0592C62.8 30.8436 63.1414 30.4707 63.3903 30.043C63.6391 29.617 63.792 29.1363 63.792 28.7032V13.7153C63.792 13.2823 63.6391 12.8016 63.3903 12.3756ZM58.528 21.7908H57.3583V22.9538H56.1903V21.7908H55.0205V20.6278H56.1903V19.4648H57.3583V20.6278H58.528V21.7908ZM62.9156 21.7908H61.7458V22.9538H60.576V21.7908H59.408V20.6278H60.576V19.4648H61.7458V20.6278H62.9156V21.7908Z" fill="white"/>
<defs>
<clipPath id="clip0">
<rect width="42.6667" height="42.4186" fill="white" transform="translate(0 28.2791)"/>
</clipPath>
</defs>
</svg>
