<svg width="95" height="44" viewBox="0 0 95 44" fill="none" xmlns="http://www.w3.org/2000/svg">
<g clip-path="url(#clip0)">
<path fill-rule="evenodd" clip-rule="evenodd" d="M95 44H51.5714V0H95V44ZM86.0437 18.6496V15.2371C85.489 14.9868 82.3123 14.0662 79.8027 15.0364C76.1876 16.4339 76.3175 20.644 77.6893 22.2963C79.4667 24.4372 83.8882 25.2354 83.1647 27.3367C82.79 28.4249 81.0409 28.6143 79.4989 28.2489C78.0628 27.9088 76.8143 27.047 76.8143 27.047V30.6603C76.8143 30.6603 78.0484 31.3574 79.5632 31.5233C81.505 31.7358 83.939 31.3344 85.1584 30.2363C87.329 28.2815 87.6623 23.9511 83.5489 21.9403C80.1259 20.2671 80.1823 19.7895 80.2063 18.9313C80.2385 17.7818 82.6206 17.0741 86.0437 18.6496ZM67.5848 9.07285C70.4329 9.17323 74.6184 10.5031 74.6184 16.1739C74.6184 21.8446 69.4974 23.7054 64.8247 23.3V31.3294H61.3437V9.14805C61.3437 9.14805 64.7366 8.97248 67.5848 9.07285H67.5848ZM68.4888 19.7871C69.9898 19.2322 70.9654 18.0393 70.9654 16.1863C70.9654 14.2217 69.9726 12.8913 68.4541 12.5155C66.8097 12.1084 64.8247 12.3484 64.8247 12.3484V20.0865C64.8247 20.0865 67.5725 20.1259 68.4888 19.7871Z" fill="white"/>
</g>
<path d="M24.4286 44L0 35.75L24.4286 38.5V5.5L8.14286 11V33L0 35.75V8.25L24.4286 0L38 5.5V38.5L24.4286 44Z" fill="white"/>
<defs>
<clipPath id="clip0">
<rect width="43.4286" height="44" fill="white" transform="translate(51.5714)"/>
</clipPath>
</defs>
</svg>
