<svg width="79" height="72" viewBox="0 0 79 72" fill="none" xmlns="http://www.w3.org/2000/svg">
<path d="M45.7368 5.83783L48.5748 37.3622L61.3101 40.8649L74.0787 37.3578L76.921 5.83783H45.739H45.7368ZM70.7434 16.1489H55.8066L56.1625 20.1092H70.3898L69.3178 31.9789L61.3101 34.1769L53.3135 31.9789L52.7676 25.9061H56.6863L56.9648 28.9929L61.3123 30.1532L61.3212 30.151L65.6709 28.9885L66.1218 23.9753H52.593L51.5409 12.2828H71.0948L70.7456 16.1489H70.7434Z" fill="white"/>
<path d="M8.71497 6.11609H41.1777L38.2256 37.3174L24.912 40.8434L11.6712 37.3154L8.71497 6.11609ZM35.1342 12.5007L14.7605 12.4968L15.089 16.2895L30.7414 16.2934L30.3485 20.2242H20.0826L20.4548 23.9468H30.0117L29.4462 29.0452L24.9474 30.2088L20.3799 29.0354L20.0868 25.9823H16.0537L16.5027 31.5613L24.9474 34.0229L33.2528 31.8104L35.1342 12.5007Z" fill="white"/>
<path d="M10.3947 42.8108V70.054H39.5V42.8108H10.3947ZM26.2342 64.0576C26.2342 66.709 24.5711 67.9193 22.148 67.9193C19.9589 67.9193 18.6918 66.8617 18.0421 65.5784L20.2708 64.3193C20.7001 65.0306 21.0899 65.6328 22.0316 65.6328C22.9276 65.6328 23.4994 65.304 23.4994 64.0216V55.3193H26.2342V64.0576ZM32.7039 67.9193C30.1634 67.9193 28.52 66.7887 27.7207 65.304L29.9493 64.1004C30.5345 64.9946 31.3006 65.6572 32.6457 65.6572C33.7756 65.6572 34.5043 65.1279 34.5043 64.3923C34.5043 63.5166 33.7631 63.2063 32.5095 62.6896L31.8276 62.4162C29.8526 61.632 28.547 60.6405 28.547 58.5545C28.547 56.6328 30.1125 55.1734 32.549 55.1734C34.2901 55.1734 35.5375 55.7387 36.4346 57.2225L34.3036 58.5C33.8359 57.7158 33.3286 57.4054 32.5428 57.4054C31.7445 57.4054 31.2372 57.8802 31.2372 58.5C31.2372 59.2667 31.7445 59.5761 32.9201 60.0567L33.602 60.3301C35.9283 61.2603 37.2339 62.2158 37.2339 64.3553C37.2339 66.6545 35.2974 67.9184 32.7049 67.9184L32.7039 67.9193Z" fill="white"/>
<g clip-path="url(#clip0)">
<path d="M55.4549 54.1061H54.1441L53.43 57.5416H54.5942C55.3623 57.5416 55.9361 57.4054 56.3155 57.132C56.6887 56.8635 56.9434 56.4071 57.0733 55.7737C57.2022 55.1656 57.143 54.7346 56.906 54.4816C56.6617 54.2335 56.1794 54.107 55.4549 54.107V54.1061ZM62.3684 48.2439C53.1805 48.2439 45.7368 51.913 45.7368 56.4324C45.7368 60.9519 53.1805 64.621 62.3684 64.621C71.5563 64.621 79 60.9519 79 56.4324C79 51.913 71.5563 48.2439 62.3684 48.2439ZM57.8477 57.9123C57.4879 58.2361 57.0548 58.4798 56.5806 58.6255C56.1149 58.7627 55.5203 58.8386 54.8 58.8386H53.1587L52.7096 61.0181H50.798L52.5038 52.814H56.1742C57.2791 52.814 58.0858 53.0825 58.5941 53.6244C59.0982 54.1664 59.2552 54.9272 59.0483 55.9002C58.9709 56.2855 58.8288 56.6569 58.6273 57.0007C58.42 57.3411 58.1565 57.6488 57.8467 57.9123H57.8477ZM63.4297 58.8386L64.1823 55.2065C64.2686 54.7949 64.2363 54.5128 64.0835 54.359C63.938 54.2121 63.6178 54.1362 63.1314 54.1362H61.621L60.647 58.8386H58.7469L60.4516 50.6296H62.3466L61.8923 52.814H63.5815C64.649 52.814 65.3787 52.9862 65.7799 53.3306C66.1864 53.6809 66.3049 54.2423 66.149 55.0187L65.3517 58.8396L63.4297 58.8386ZM73.9533 55.9002C73.8783 56.2861 73.7361 56.6579 73.5323 57.0007C73.327 57.3407 73.0656 57.6484 72.7579 57.9123C72.3948 58.2345 71.9605 58.478 71.4856 58.6255C71.0199 58.7627 70.4243 58.8386 69.705 58.8386H68.0699L67.6157 61.0181H65.7041L67.4098 52.814H71.0802C72.1852 52.814 72.9918 53.0825 73.5001 53.6303C74.0043 54.1674 74.1612 54.9272 73.9544 55.9002H73.9533ZM70.3599 54.1061H69.0543L68.3402 57.5416H69.4992C70.2726 57.5416 70.8463 57.4054 71.2206 57.132C71.5989 56.8635 71.8536 56.4071 71.9846 55.7737C72.1135 55.1656 72.0542 54.7346 71.8099 54.4816C71.5729 54.2335 71.0854 54.107 70.3599 54.107V54.1061Z" fill="white"/>
</g>
<defs>
<clipPath id="clip0">
<rect width="33.2632" height="31.1351" fill="white" transform="translate(45.7368 40.8649)"/>
</clipPath>
</defs>
</svg>
