<svg width="774" height="440" viewBox="0 0 774 440" fill="none" xmlns="http://www.w3.org/2000/svg">
<g opacity="0.5">
<path d="M-1.24998 375.75C-1.24998 372.589 -0.0295982 369.558 2.1427 367.324C4.31499 365.089 7.26126 363.833 10.3334 363.833C11.8694 363.833 13.3425 363.206 14.4287 362.088C15.5148 360.971 16.125 359.455 16.125 357.875C16.125 356.295 15.5148 354.779 14.4287 353.662C13.3425 352.544 11.8694 351.917 10.3334 351.917C4.18917 351.917 -1.70336 354.428 -6.04795 358.897C-10.3925 363.367 -12.8333 369.429 -12.8333 375.75V393.625C-12.8333 396.785 -14.0537 399.817 -16.226 402.051C-18.3983 404.286 -21.3446 405.542 -24.4166 405.542C-25.9527 405.542 -27.4258 406.169 -28.512 407.287C-29.5981 408.404 -30.2083 409.92 -30.2083 411.5C-30.2083 413.08 -29.5981 414.596 -28.512 415.713C-27.4258 416.831 -25.9527 417.458 -24.4166 417.458C-21.3446 417.458 -18.3983 418.714 -16.226 420.949C-14.0537 423.183 -12.8333 426.214 -12.8333 429.375V447.25C-12.8333 453.571 -10.3925 459.633 -6.04795 464.103C-1.70336 468.572 4.18917 471.083 10.3334 471.083C11.8694 471.083 13.3425 470.456 14.4287 469.338C15.5148 468.221 16.125 466.705 16.125 465.125C16.125 463.545 15.5148 462.029 14.4287 460.912C13.3425 459.794 11.8694 459.167 10.3334 459.167C7.26126 459.167 4.31499 457.911 2.1427 455.676C-0.0295982 453.442 -1.24998 450.41 -1.24998 447.25V429.375C-1.26859 425.982 -1.99124 422.632 -3.36958 419.549C-4.74793 416.467 -6.7502 413.722 -9.24248 411.5C-6.7502 409.278 -4.74793 406.533 -3.36958 403.451C-1.99124 400.368 -1.26859 397.018 -1.24998 393.625V375.75ZM91.4167 405.542C88.3446 405.542 85.3983 404.286 83.226 402.051C81.0537 399.817 79.8334 396.785 79.8334 393.625V375.75C79.8334 369.429 77.3926 363.367 73.048 358.897C68.7034 354.428 62.8109 351.917 56.6667 351.917C55.1306 351.917 53.6575 352.544 52.5714 353.662C51.4852 354.779 50.875 356.295 50.875 357.875C50.875 359.455 51.4852 360.971 52.5714 362.088C53.6575 363.206 55.1306 363.833 56.6667 363.833C59.7388 363.833 62.685 365.089 64.8573 367.324C67.0296 369.558 68.25 372.589 68.25 375.75V393.625C68.2686 397.018 68.9913 400.368 70.3696 403.451C71.748 406.533 73.7502 409.278 76.2425 411.5C73.7502 413.722 71.748 416.467 70.3696 419.549C68.9913 422.632 68.2686 425.982 68.25 429.375V447.25C68.25 450.41 67.0296 453.442 64.8573 455.676C62.685 457.911 59.7388 459.167 56.6667 459.167C55.1306 459.167 53.6575 459.794 52.5714 460.912C51.4852 462.029 50.875 463.545 50.875 465.125C50.875 466.705 51.4852 468.221 52.5714 469.338C53.6575 470.456 55.1306 471.083 56.6667 471.083C62.8109 471.083 68.7034 468.572 73.048 464.103C77.3926 459.633 79.8334 453.571 79.8334 447.25V429.375C79.8334 426.214 81.0537 423.183 83.226 420.949C85.3983 418.714 88.3446 417.458 91.4167 417.458C92.9527 417.458 94.4259 416.831 95.512 415.713C96.5982 414.596 97.2084 413.08 97.2084 411.5C97.2084 409.92 96.5982 408.404 95.512 407.287C94.4259 406.169 92.9527 405.542 91.4167 405.542Z" fill="white"/>
</g>
<g opacity="0.5">
<path d="M413.797 434.25C414.27 430.373 414.625 426.495 414.625 422.5C414.625 418.505 414.27 414.628 413.797 410.75H433.795C434.742 414.51 435.333 418.446 435.333 422.5C435.333 426.554 434.742 430.49 433.795 434.25H413.797ZM403.324 466.915C406.874 460.394 409.596 453.344 411.489 446H428.943C423.211 455.801 414.117 463.226 403.324 466.915ZM401.845 434.25H374.155C373.563 430.373 373.208 426.495 373.208 422.5C373.208 418.505 373.563 414.569 374.155 410.75H401.845C402.377 414.569 402.792 418.505 402.792 422.5C402.792 426.495 402.377 430.373 401.845 434.25ZM388 469.265C383.089 462.215 379.125 454.401 376.699 446H399.301C396.875 454.401 392.911 462.215 388 469.265ZM364.333 399H347.057C352.73 389.172 361.818 381.736 372.617 378.085C369.067 384.606 366.404 391.656 364.333 399ZM347.057 446H364.333C366.404 453.344 369.067 460.394 372.617 466.915C361.84 463.224 352.765 455.798 347.057 446ZM342.205 434.25C341.258 430.49 340.667 426.554 340.667 422.5C340.667 418.446 341.258 414.51 342.205 410.75H362.203C361.73 414.628 361.375 418.505 361.375 422.5C361.375 426.495 361.73 430.373 362.203 434.25H342.205ZM388 375.676C392.911 382.726 396.875 390.599 399.301 399H376.699C379.125 390.599 383.089 382.726 388 375.676ZM428.943 399H411.489C409.637 391.724 406.895 384.7 403.324 378.085C414.211 381.786 423.263 389.248 428.943 399ZM388 363.75C355.281 363.75 328.833 390.188 328.833 422.5C328.833 438.081 335.067 453.025 346.163 464.043C351.657 469.498 358.179 473.825 365.358 476.778C372.536 479.73 380.23 481.25 388 481.25C403.692 481.25 418.741 475.06 429.837 464.043C440.933 453.025 447.167 438.081 447.167 422.5C447.167 414.785 445.636 407.145 442.663 400.017C439.689 392.889 435.331 386.413 429.837 380.957C424.343 375.502 417.821 371.175 410.642 368.222C403.464 365.27 395.77 363.75 388 363.75Z" fill="white"/>
</g>
<g opacity="0.5">
<path d="M790.625 345.625C795.366 345.625 799.912 347.52 803.265 350.894C806.617 354.268 808.5 358.843 808.5 363.615V445.385C808.5 450.157 806.617 454.732 803.265 458.106C799.912 461.48 795.366 463.375 790.625 463.375H709.375C704.634 463.375 700.088 461.48 696.735 458.106C693.383 454.732 691.5 450.157 691.5 445.385V363.615C691.5 358.843 693.383 354.268 696.735 350.894C700.088 347.52 704.634 345.625 709.375 345.625H790.625ZM790.625 355.438H709.375C704.89 355.438 701.25 359.101 701.25 363.615V445.385C701.25 449.899 704.89 453.562 709.375 453.562H790.625C795.11 453.562 798.75 449.899 798.75 445.385V363.615C798.75 359.101 795.11 355.438 790.625 355.438ZM735.388 407.771C741.667 407.771 746.763 412.899 746.763 419.219V432.302C746.763 435.338 745.565 438.25 743.431 440.397C741.298 442.544 738.405 443.75 735.388 443.75H722.388C719.371 443.75 716.478 442.544 714.345 440.397C712.211 438.25 711.013 435.338 711.013 432.302V419.219C711.013 412.899 716.102 407.771 722.388 407.771H735.388ZM777.618 407.771C783.904 407.771 788.993 412.899 788.993 419.219V432.302C788.994 435.337 787.796 438.248 785.664 440.395C783.532 442.541 780.641 443.748 777.625 443.75H764.625C761.608 443.75 758.715 442.544 756.582 440.397C754.448 438.25 753.25 435.338 753.25 432.302V419.219C753.25 412.899 758.346 407.771 764.625 407.771H777.625H777.618ZM735.382 365.25C741.661 365.25 746.757 370.379 746.757 376.698V389.781C746.757 392.817 745.558 395.729 743.425 397.876C741.292 400.023 738.398 401.229 735.382 401.229H722.382C720.887 401.23 719.407 400.935 718.026 400.36C716.646 399.785 715.391 398.942 714.334 397.878C713.277 396.815 712.439 395.553 711.866 394.164C711.294 392.774 711 391.285 711 389.781V376.698C711 370.379 716.096 365.25 722.375 365.25H735.375H735.382ZM777.612 365.25C783.897 365.25 788.987 370.379 788.987 376.698V389.781C788.987 392.817 787.789 395.729 785.655 397.876C783.522 400.023 780.629 401.229 777.612 401.229H764.612C761.595 401.229 758.702 400.023 756.569 397.876C754.435 395.729 753.237 392.817 753.237 389.781V376.698C753.237 370.379 758.333 365.25 764.612 365.25H777.612Z" fill="white"/>
</g>
<path d="M-12 233L823 97V196L-12 332" stroke="#0300AC" stroke-width="27"/>
</svg>
