<svg width="774" height="302" viewBox="0 0 774 302" fill="none" xmlns="http://www.w3.org/2000/svg">
<g clip-path="url(#clip0)">
<rect width="774" height="302" fill="#001689"/>
<path d="M0 302V0L774 302H0Z" fill="#0062D6"/>
<path d="M32.5317 238.677C34.2603 240.533 37.0618 240.533 38.7904 238.677L41.9183 235.32C43.6468 233.464 43.6468 230.457 41.9183 228.601L32.0395 218L41.9155 207.396C43.644 205.54 43.644 202.533 41.9155 200.677L38.7876 197.32C37.0591 195.464 34.2575 195.464 32.529 197.32L16.3943 214.639C14.6658 216.495 14.6658 219.502 16.3943 221.358L32.5317 238.677ZM59.0845 235.323L62.2124 238.68C63.9409 240.536 66.7425 240.536 68.471 238.68L84.6057 221.361C86.3342 219.505 86.3342 216.498 84.6057 214.642L68.471 197.323C66.7425 195.467 63.9409 195.467 62.2124 197.323L59.0845 200.68C57.356 202.536 57.356 205.543 59.0845 207.399L68.9605 218L59.0845 228.604C57.356 230.46 57.356 233.467 59.0845 235.323ZM134.575 284.5H67.5197C67.315 290.381 63.4514 294 58.465 294H41.65C36.481 294 32.5179 288.814 32.5871 284.5H-33.575C-36.0087 284.5 -38 286.637 -38 289.25V294C-38 304.45 -30.035 313 -20.3 313H121.3C131.035 313 139 304.45 139 294V289.25C139 286.637 137.009 284.5 134.575 284.5ZM121.3 175.25C121.3 167.412 115.326 161 108.025 161H-7.025C-14.3262 161 -20.3 167.412 -20.3 175.25V275H121.3V175.25ZM103.6 256H-2.6V180H103.6V256Z" fill="white" fill-opacity="0.62"/>
</g>
<defs>
<clipPath id="clip0">
<rect width="774" height="302" fill="white"/>
</clipPath>
</defs>
</svg>
